<mxfile host="65bd71144e">
    <diagram id="fD6jByFpKJxSSgV2leN4" name="ページ1">
        <mxGraphModel dx="1122" dy="646" grid="1" gridSize="10" guides="1" tooltips="1" connect="1" arrows="1" fold="1" page="1" pageScale="1" pageWidth="827" pageHeight="1169" math="0" shadow="0">
            <root>
                <mxCell id="0"/>
                <mxCell id="1" parent="0"/>
                <mxCell id="146" value="" style="rounded=0;whiteSpace=wrap;html=1;" vertex="1" parent="1">
                    <mxGeometry x="30" y="210" width="780" height="60" as="geometry"/>
                </mxCell>
                <mxCell id="4" value="" style="group" vertex="1" connectable="0" parent="1">
                    <mxGeometry x="180" y="80" width="480" height="80" as="geometry"/>
                </mxCell>
                <mxCell id="5" value="" style="rounded=0;whiteSpace=wrap;html=1;" vertex="1" parent="4">
                    <mxGeometry width="480" height="80" as="geometry"/>
                </mxCell>
                <mxCell id="6" value="&lt;b&gt;&lt;font style=&quot;font-size: 33px;&quot;&gt;スコア一覧画面&lt;/font&gt;&lt;/b&gt;" style="text;html=1;align=center;verticalAlign=middle;whiteSpace=wrap;rounded=0;" vertex="1" parent="4">
                    <mxGeometry x="30" y="29.090909090909093" width="420" height="21.818181818181824" as="geometry"/>
                </mxCell>
                <mxCell id="11" value="日付：" style="text;html=1;align=center;verticalAlign=middle;whiteSpace=wrap;rounded=0;fontSize=15;" vertex="1" parent="1">
                    <mxGeometry x="414" y="210" width="160" height="60" as="geometry"/>
                </mxCell>
                <mxCell id="12" value="" style="rounded=0;whiteSpace=wrap;html=1;" vertex="1" parent="1">
                    <mxGeometry x="520" y="225" width="60" height="30" as="geometry"/>
                </mxCell>
                <mxCell id="13" value="" style="rounded=0;whiteSpace=wrap;html=1;" vertex="1" parent="1">
                    <mxGeometry x="610" y="225" width="60" height="30" as="geometry"/>
                </mxCell>
                <mxCell id="14" value="～" style="text;html=1;align=center;verticalAlign=middle;whiteSpace=wrap;rounded=0;fontSize=15;" vertex="1" parent="1">
                    <mxGeometry x="520" y="210" width="160" height="60" as="geometry"/>
                </mxCell>
                <mxCell id="18" value="" style="group" vertex="1" connectable="0" parent="1">
                    <mxGeometry x="690" y="225" width="60" height="30" as="geometry"/>
                </mxCell>
                <mxCell id="19" value="" style="rounded=1;whiteSpace=wrap;html=1;" vertex="1" parent="18">
                    <mxGeometry width="60" height="30" as="geometry"/>
                </mxCell>
                <mxCell id="20" value="検索" style="text;html=1;align=center;verticalAlign=middle;whiteSpace=wrap;rounded=0;fontSize=19;" vertex="1" parent="18">
                    <mxGeometry x="8.5" y="7.5" width="43" height="15" as="geometry"/>
                </mxCell>
                <mxCell id="23" value="" style="childLayout=tableLayout;recursiveResize=0;shadow=0;fillColor=none;" vertex="1" parent="1">
                    <mxGeometry x="51" y="314" width="719" height="408" as="geometry"/>
                </mxCell>
                <mxCell id="24" value="" style="shape=tableRow;horizontal=0;startSize=0;swimlaneHead=0;swimlaneBody=0;top=0;left=0;bottom=0;right=0;dropTarget=0;collapsible=0;recursiveResize=0;expand=0;fontStyle=0;fillColor=none;strokeColor=inherit;" vertex="1" parent="23">
                    <mxGeometry width="719" height="40" as="geometry"/>
                </mxCell>
                <mxCell id="25" value="No." style="connectable=0;recursiveResize=0;strokeColor=inherit;fillColor=none;align=center;whiteSpace=wrap;html=1;" vertex="1" parent="24">
                    <mxGeometry width="44" height="40" as="geometry">
                        <mxRectangle width="44" height="40" as="alternateBounds"/>
                    </mxGeometry>
                </mxCell>
                <mxCell id="26" value="日付" style="connectable=0;recursiveResize=0;strokeColor=inherit;fillColor=none;align=center;whiteSpace=wrap;html=1;" vertex="1" parent="24">
                    <mxGeometry x="44" width="87" height="40" as="geometry">
                        <mxRectangle width="87" height="40" as="alternateBounds"/>
                    </mxGeometry>
                </mxCell>
                <mxCell id="27" value="利用者名" style="connectable=0;recursiveResize=0;strokeColor=inherit;fillColor=none;align=center;whiteSpace=wrap;html=1;" vertex="1" parent="24">
                    <mxGeometry x="131" width="139" height="40" as="geometry">
                        <mxRectangle width="139" height="40" as="alternateBounds"/>
                    </mxGeometry>
                </mxCell>
                <mxCell id="40" value="評価①" style="connectable=0;recursiveResize=0;strokeColor=inherit;fillColor=none;align=center;whiteSpace=wrap;html=1;" vertex="1" parent="24">
                    <mxGeometry x="270" width="99" height="40" as="geometry">
                        <mxRectangle width="99" height="40" as="alternateBounds"/>
                    </mxGeometry>
                </mxCell>
                <mxCell id="44" value="評価②" style="connectable=0;recursiveResize=0;strokeColor=inherit;fillColor=none;align=center;whiteSpace=wrap;html=1;" vertex="1" parent="24">
                    <mxGeometry x="369" width="100" height="40" as="geometry">
                        <mxRectangle width="100" height="40" as="alternateBounds"/>
                    </mxGeometry>
                </mxCell>
                <mxCell id="48" value="評価③" style="connectable=0;recursiveResize=0;strokeColor=inherit;fillColor=none;align=center;whiteSpace=wrap;html=1;" vertex="1" parent="24">
                    <mxGeometry x="469" width="90" height="40" as="geometry">
                        <mxRectangle width="90" height="40" as="alternateBounds"/>
                    </mxGeometry>
                </mxCell>
                <mxCell id="52" value="合計" style="connectable=0;recursiveResize=0;strokeColor=inherit;fillColor=none;align=center;whiteSpace=wrap;html=1;" vertex="1" parent="24">
                    <mxGeometry x="559" width="100" height="40" as="geometry">
                        <mxRectangle width="100" height="40" as="alternateBounds"/>
                    </mxGeometry>
                </mxCell>
                <mxCell id="56" style="connectable=0;recursiveResize=0;strokeColor=inherit;fillColor=none;align=center;whiteSpace=wrap;html=1;" vertex="1" parent="24">
                    <mxGeometry x="659" width="60" height="40" as="geometry">
                        <mxRectangle width="60" height="40" as="alternateBounds"/>
                    </mxGeometry>
                </mxCell>
                <mxCell id="28" style="shape=tableRow;horizontal=0;startSize=0;swimlaneHead=0;swimlaneBody=0;top=0;left=0;bottom=0;right=0;dropTarget=0;collapsible=0;recursiveResize=0;expand=0;fontStyle=0;fillColor=none;strokeColor=inherit;" vertex="1" parent="23">
                    <mxGeometry y="40" width="719" height="40" as="geometry"/>
                </mxCell>
                <mxCell id="29" value="1" style="connectable=0;recursiveResize=0;strokeColor=inherit;fillColor=none;align=center;whiteSpace=wrap;html=1;" vertex="1" parent="28">
                    <mxGeometry width="44" height="40" as="geometry">
                        <mxRectangle width="44" height="40" as="alternateBounds"/>
                    </mxGeometry>
                </mxCell>
                <mxCell id="30" value="2025/01/01" style="connectable=0;recursiveResize=0;strokeColor=inherit;fillColor=none;align=center;whiteSpace=wrap;html=1;" vertex="1" parent="28">
                    <mxGeometry x="44" width="87" height="40" as="geometry">
                        <mxRectangle width="87" height="40" as="alternateBounds"/>
                    </mxGeometry>
                </mxCell>
                <mxCell id="31" value="田中　太郎" style="connectable=0;recursiveResize=0;strokeColor=inherit;fillColor=none;align=center;whiteSpace=wrap;html=1;" vertex="1" parent="28">
                    <mxGeometry x="131" width="139" height="40" as="geometry">
                        <mxRectangle width="139" height="40" as="alternateBounds"/>
                    </mxGeometry>
                </mxCell>
                <mxCell id="41" style="connectable=0;recursiveResize=0;strokeColor=inherit;fillColor=none;align=center;whiteSpace=wrap;html=1;" vertex="1" parent="28">
                    <mxGeometry x="270" width="99" height="40" as="geometry">
                        <mxRectangle width="99" height="40" as="alternateBounds"/>
                    </mxGeometry>
                </mxCell>
                <mxCell id="45" style="connectable=0;recursiveResize=0;strokeColor=inherit;fillColor=none;align=center;whiteSpace=wrap;html=1;" vertex="1" parent="28">
                    <mxGeometry x="369" width="100" height="40" as="geometry">
                        <mxRectangle width="100" height="40" as="alternateBounds"/>
                    </mxGeometry>
                </mxCell>
                <mxCell id="49" style="connectable=0;recursiveResize=0;strokeColor=inherit;fillColor=none;align=center;whiteSpace=wrap;html=1;" vertex="1" parent="28">
                    <mxGeometry x="469" width="90" height="40" as="geometry">
                        <mxRectangle width="90" height="40" as="alternateBounds"/>
                    </mxGeometry>
                </mxCell>
                <mxCell id="53" style="connectable=0;recursiveResize=0;strokeColor=inherit;fillColor=none;align=center;whiteSpace=wrap;html=1;" vertex="1" parent="28">
                    <mxGeometry x="559" width="100" height="40" as="geometry">
                        <mxRectangle width="100" height="40" as="alternateBounds"/>
                    </mxGeometry>
                </mxCell>
                <mxCell id="57" value="&lt;u&gt;編集&lt;/u&gt;" style="connectable=0;recursiveResize=0;strokeColor=inherit;fillColor=none;align=center;whiteSpace=wrap;html=1;" vertex="1" parent="28">
                    <mxGeometry x="659" width="60" height="40" as="geometry">
                        <mxRectangle width="60" height="40" as="alternateBounds"/>
                    </mxGeometry>
                </mxCell>
                <mxCell id="32" style="shape=tableRow;horizontal=0;startSize=0;swimlaneHead=0;swimlaneBody=0;top=0;left=0;bottom=0;right=0;dropTarget=0;collapsible=0;recursiveResize=0;expand=0;fontStyle=0;fillColor=none;strokeColor=inherit;" vertex="1" parent="23">
                    <mxGeometry y="80" width="719" height="40" as="geometry"/>
                </mxCell>
                <mxCell id="33" value="2" style="connectable=0;recursiveResize=0;strokeColor=inherit;fillColor=none;align=center;whiteSpace=wrap;html=1;" vertex="1" parent="32">
                    <mxGeometry width="44" height="40" as="geometry">
                        <mxRectangle width="44" height="40" as="alternateBounds"/>
                    </mxGeometry>
                </mxCell>
                <mxCell id="34" value="2025/05/01" style="connectable=0;recursiveResize=0;strokeColor=inherit;fillColor=none;align=center;whiteSpace=wrap;html=1;" vertex="1" parent="32">
                    <mxGeometry x="44" width="87" height="40" as="geometry">
                        <mxRectangle width="87" height="40" as="alternateBounds"/>
                    </mxGeometry>
                </mxCell>
                <mxCell id="35" value="大阪　太郎" style="connectable=0;recursiveResize=0;strokeColor=inherit;fillColor=none;align=center;whiteSpace=wrap;html=1;" vertex="1" parent="32">
                    <mxGeometry x="131" width="139" height="40" as="geometry">
                        <mxRectangle width="139" height="40" as="alternateBounds"/>
                    </mxGeometry>
                </mxCell>
                <mxCell id="42" style="connectable=0;recursiveResize=0;strokeColor=inherit;fillColor=none;align=center;whiteSpace=wrap;html=1;" vertex="1" parent="32">
                    <mxGeometry x="270" width="99" height="40" as="geometry">
                        <mxRectangle width="99" height="40" as="alternateBounds"/>
                    </mxGeometry>
                </mxCell>
                <mxCell id="46" style="connectable=0;recursiveResize=0;strokeColor=inherit;fillColor=none;align=center;whiteSpace=wrap;html=1;" vertex="1" parent="32">
                    <mxGeometry x="369" width="100" height="40" as="geometry">
                        <mxRectangle width="100" height="40" as="alternateBounds"/>
                    </mxGeometry>
                </mxCell>
                <mxCell id="50" style="connectable=0;recursiveResize=0;strokeColor=inherit;fillColor=none;align=center;whiteSpace=wrap;html=1;" vertex="1" parent="32">
                    <mxGeometry x="469" width="90" height="40" as="geometry">
                        <mxRectangle width="90" height="40" as="alternateBounds"/>
                    </mxGeometry>
                </mxCell>
                <mxCell id="54" style="connectable=0;recursiveResize=0;strokeColor=inherit;fillColor=none;align=center;whiteSpace=wrap;html=1;" vertex="1" parent="32">
                    <mxGeometry x="559" width="100" height="40" as="geometry">
                        <mxRectangle width="100" height="40" as="alternateBounds"/>
                    </mxGeometry>
                </mxCell>
                <mxCell id="58" value="&lt;u&gt;編集&lt;/u&gt;" style="connectable=0;recursiveResize=0;strokeColor=inherit;fillColor=none;align=center;whiteSpace=wrap;html=1;" vertex="1" parent="32">
                    <mxGeometry x="659" width="60" height="40" as="geometry">
                        <mxRectangle width="60" height="40" as="alternateBounds"/>
                    </mxGeometry>
                </mxCell>
                <mxCell id="36" style="shape=tableRow;horizontal=0;startSize=0;swimlaneHead=0;swimlaneBody=0;top=0;left=0;bottom=0;right=0;dropTarget=0;collapsible=0;recursiveResize=0;expand=0;fontStyle=0;fillColor=none;strokeColor=inherit;" vertex="1" parent="23">
                    <mxGeometry y="120" width="719" height="36" as="geometry"/>
                </mxCell>
                <mxCell id="37" value="3" style="connectable=0;recursiveResize=0;strokeColor=inherit;fillColor=none;align=center;whiteSpace=wrap;html=1;" vertex="1" parent="36">
                    <mxGeometry width="44" height="36" as="geometry">
                        <mxRectangle width="44" height="36" as="alternateBounds"/>
                    </mxGeometry>
                </mxCell>
                <mxCell id="38" value="2025/05/15" style="connectable=0;recursiveResize=0;strokeColor=inherit;fillColor=none;align=center;whiteSpace=wrap;html=1;" vertex="1" parent="36">
                    <mxGeometry x="44" width="87" height="36" as="geometry">
                        <mxRectangle width="87" height="36" as="alternateBounds"/>
                    </mxGeometry>
                </mxCell>
                <mxCell id="39" value="鈴木　次郎" style="connectable=0;recursiveResize=0;strokeColor=inherit;fillColor=none;align=center;whiteSpace=wrap;html=1;" vertex="1" parent="36">
                    <mxGeometry x="131" width="139" height="36" as="geometry">
                        <mxRectangle width="139" height="36" as="alternateBounds"/>
                    </mxGeometry>
                </mxCell>
                <mxCell id="43" style="connectable=0;recursiveResize=0;strokeColor=inherit;fillColor=none;align=center;whiteSpace=wrap;html=1;" vertex="1" parent="36">
                    <mxGeometry x="270" width="99" height="36" as="geometry">
                        <mxRectangle width="99" height="36" as="alternateBounds"/>
                    </mxGeometry>
                </mxCell>
                <mxCell id="47" style="connectable=0;recursiveResize=0;strokeColor=inherit;fillColor=none;align=center;whiteSpace=wrap;html=1;" vertex="1" parent="36">
                    <mxGeometry x="369" width="100" height="36" as="geometry">
                        <mxRectangle width="100" height="36" as="alternateBounds"/>
                    </mxGeometry>
                </mxCell>
                <mxCell id="51" style="connectable=0;recursiveResize=0;strokeColor=inherit;fillColor=none;align=center;whiteSpace=wrap;html=1;" vertex="1" parent="36">
                    <mxGeometry x="469" width="90" height="36" as="geometry">
                        <mxRectangle width="90" height="36" as="alternateBounds"/>
                    </mxGeometry>
                </mxCell>
                <mxCell id="55" style="connectable=0;recursiveResize=0;strokeColor=inherit;fillColor=none;align=center;whiteSpace=wrap;html=1;" vertex="1" parent="36">
                    <mxGeometry x="559" width="100" height="36" as="geometry">
                        <mxRectangle width="100" height="36" as="alternateBounds"/>
                    </mxGeometry>
                </mxCell>
                <mxCell id="59" value="&lt;u&gt;編集&lt;/u&gt;" style="connectable=0;recursiveResize=0;strokeColor=inherit;fillColor=none;align=center;whiteSpace=wrap;html=1;" vertex="1" parent="36">
                    <mxGeometry x="659" width="60" height="36" as="geometry">
                        <mxRectangle width="60" height="36" as="alternateBounds"/>
                    </mxGeometry>
                </mxCell>
                <mxCell id="69" style="shape=tableRow;horizontal=0;startSize=0;swimlaneHead=0;swimlaneBody=0;top=0;left=0;bottom=0;right=0;dropTarget=0;collapsible=0;recursiveResize=0;expand=0;fontStyle=0;fillColor=none;strokeColor=inherit;" vertex="1" parent="23">
                    <mxGeometry y="156" width="719" height="36" as="geometry"/>
                </mxCell>
                <mxCell id="70" value="4" style="connectable=0;recursiveResize=0;strokeColor=inherit;fillColor=none;align=center;whiteSpace=wrap;html=1;" vertex="1" parent="69">
                    <mxGeometry width="44" height="36" as="geometry">
                        <mxRectangle width="44" height="36" as="alternateBounds"/>
                    </mxGeometry>
                </mxCell>
                <mxCell id="71" style="connectable=0;recursiveResize=0;strokeColor=inherit;fillColor=none;align=center;whiteSpace=wrap;html=1;" vertex="1" parent="69">
                    <mxGeometry x="44" width="87" height="36" as="geometry">
                        <mxRectangle width="87" height="36" as="alternateBounds"/>
                    </mxGeometry>
                </mxCell>
                <mxCell id="72" style="connectable=0;recursiveResize=0;strokeColor=inherit;fillColor=none;align=center;whiteSpace=wrap;html=1;" vertex="1" parent="69">
                    <mxGeometry x="131" width="139" height="36" as="geometry">
                        <mxRectangle width="139" height="36" as="alternateBounds"/>
                    </mxGeometry>
                </mxCell>
                <mxCell id="73" style="connectable=0;recursiveResize=0;strokeColor=inherit;fillColor=none;align=center;whiteSpace=wrap;html=1;" vertex="1" parent="69">
                    <mxGeometry x="270" width="99" height="36" as="geometry">
                        <mxRectangle width="99" height="36" as="alternateBounds"/>
                    </mxGeometry>
                </mxCell>
                <mxCell id="74" style="connectable=0;recursiveResize=0;strokeColor=inherit;fillColor=none;align=center;whiteSpace=wrap;html=1;" vertex="1" parent="69">
                    <mxGeometry x="369" width="100" height="36" as="geometry">
                        <mxRectangle width="100" height="36" as="alternateBounds"/>
                    </mxGeometry>
                </mxCell>
                <mxCell id="75" style="connectable=0;recursiveResize=0;strokeColor=inherit;fillColor=none;align=center;whiteSpace=wrap;html=1;" vertex="1" parent="69">
                    <mxGeometry x="469" width="90" height="36" as="geometry">
                        <mxRectangle width="90" height="36" as="alternateBounds"/>
                    </mxGeometry>
                </mxCell>
                <mxCell id="76" style="connectable=0;recursiveResize=0;strokeColor=inherit;fillColor=none;align=center;whiteSpace=wrap;html=1;" vertex="1" parent="69">
                    <mxGeometry x="559" width="100" height="36" as="geometry">
                        <mxRectangle width="100" height="36" as="alternateBounds"/>
                    </mxGeometry>
                </mxCell>
                <mxCell id="77" style="connectable=0;recursiveResize=0;strokeColor=inherit;fillColor=none;align=center;whiteSpace=wrap;html=1;" vertex="1" parent="69">
                    <mxGeometry x="659" width="60" height="36" as="geometry">
                        <mxRectangle width="60" height="36" as="alternateBounds"/>
                    </mxGeometry>
                </mxCell>
                <mxCell id="78" style="shape=tableRow;horizontal=0;startSize=0;swimlaneHead=0;swimlaneBody=0;top=0;left=0;bottom=0;right=0;dropTarget=0;collapsible=0;recursiveResize=0;expand=0;fontStyle=0;fillColor=none;strokeColor=inherit;" vertex="1" parent="23">
                    <mxGeometry y="192" width="719" height="36" as="geometry"/>
                </mxCell>
                <mxCell id="79" value="5" style="connectable=0;recursiveResize=0;strokeColor=inherit;fillColor=none;align=center;whiteSpace=wrap;html=1;" vertex="1" parent="78">
                    <mxGeometry width="44" height="36" as="geometry">
                        <mxRectangle width="44" height="36" as="alternateBounds"/>
                    </mxGeometry>
                </mxCell>
                <mxCell id="80" style="connectable=0;recursiveResize=0;strokeColor=inherit;fillColor=none;align=center;whiteSpace=wrap;html=1;" vertex="1" parent="78">
                    <mxGeometry x="44" width="87" height="36" as="geometry">
                        <mxRectangle width="87" height="36" as="alternateBounds"/>
                    </mxGeometry>
                </mxCell>
                <mxCell id="81" style="connectable=0;recursiveResize=0;strokeColor=inherit;fillColor=none;align=center;whiteSpace=wrap;html=1;" vertex="1" parent="78">
                    <mxGeometry x="131" width="139" height="36" as="geometry">
                        <mxRectangle width="139" height="36" as="alternateBounds"/>
                    </mxGeometry>
                </mxCell>
                <mxCell id="82" style="connectable=0;recursiveResize=0;strokeColor=inherit;fillColor=none;align=center;whiteSpace=wrap;html=1;" vertex="1" parent="78">
                    <mxGeometry x="270" width="99" height="36" as="geometry">
                        <mxRectangle width="99" height="36" as="alternateBounds"/>
                    </mxGeometry>
                </mxCell>
                <mxCell id="83" style="connectable=0;recursiveResize=0;strokeColor=inherit;fillColor=none;align=center;whiteSpace=wrap;html=1;" vertex="1" parent="78">
                    <mxGeometry x="369" width="100" height="36" as="geometry">
                        <mxRectangle width="100" height="36" as="alternateBounds"/>
                    </mxGeometry>
                </mxCell>
                <mxCell id="84" style="connectable=0;recursiveResize=0;strokeColor=inherit;fillColor=none;align=center;whiteSpace=wrap;html=1;" vertex="1" parent="78">
                    <mxGeometry x="469" width="90" height="36" as="geometry">
                        <mxRectangle width="90" height="36" as="alternateBounds"/>
                    </mxGeometry>
                </mxCell>
                <mxCell id="85" style="connectable=0;recursiveResize=0;strokeColor=inherit;fillColor=none;align=center;whiteSpace=wrap;html=1;" vertex="1" parent="78">
                    <mxGeometry x="559" width="100" height="36" as="geometry">
                        <mxRectangle width="100" height="36" as="alternateBounds"/>
                    </mxGeometry>
                </mxCell>
                <mxCell id="86" style="connectable=0;recursiveResize=0;strokeColor=inherit;fillColor=none;align=center;whiteSpace=wrap;html=1;" vertex="1" parent="78">
                    <mxGeometry x="659" width="60" height="36" as="geometry">
                        <mxRectangle width="60" height="36" as="alternateBounds"/>
                    </mxGeometry>
                </mxCell>
                <mxCell id="87" style="shape=tableRow;horizontal=0;startSize=0;swimlaneHead=0;swimlaneBody=0;top=0;left=0;bottom=0;right=0;dropTarget=0;collapsible=0;recursiveResize=0;expand=0;fontStyle=0;fillColor=none;strokeColor=inherit;" vertex="1" parent="23">
                    <mxGeometry y="228" width="719" height="36" as="geometry"/>
                </mxCell>
                <mxCell id="88" value="6" style="connectable=0;recursiveResize=0;strokeColor=inherit;fillColor=none;align=center;whiteSpace=wrap;html=1;" vertex="1" parent="87">
                    <mxGeometry width="44" height="36" as="geometry">
                        <mxRectangle width="44" height="36" as="alternateBounds"/>
                    </mxGeometry>
                </mxCell>
                <mxCell id="89" style="connectable=0;recursiveResize=0;strokeColor=inherit;fillColor=none;align=center;whiteSpace=wrap;html=1;" vertex="1" parent="87">
                    <mxGeometry x="44" width="87" height="36" as="geometry">
                        <mxRectangle width="87" height="36" as="alternateBounds"/>
                    </mxGeometry>
                </mxCell>
                <mxCell id="90" style="connectable=0;recursiveResize=0;strokeColor=inherit;fillColor=none;align=center;whiteSpace=wrap;html=1;" vertex="1" parent="87">
                    <mxGeometry x="131" width="139" height="36" as="geometry">
                        <mxRectangle width="139" height="36" as="alternateBounds"/>
                    </mxGeometry>
                </mxCell>
                <mxCell id="91" style="connectable=0;recursiveResize=0;strokeColor=inherit;fillColor=none;align=center;whiteSpace=wrap;html=1;" vertex="1" parent="87">
                    <mxGeometry x="270" width="99" height="36" as="geometry">
                        <mxRectangle width="99" height="36" as="alternateBounds"/>
                    </mxGeometry>
                </mxCell>
                <mxCell id="92" style="connectable=0;recursiveResize=0;strokeColor=inherit;fillColor=none;align=center;whiteSpace=wrap;html=1;" vertex="1" parent="87">
                    <mxGeometry x="369" width="100" height="36" as="geometry">
                        <mxRectangle width="100" height="36" as="alternateBounds"/>
                    </mxGeometry>
                </mxCell>
                <mxCell id="93" style="connectable=0;recursiveResize=0;strokeColor=inherit;fillColor=none;align=center;whiteSpace=wrap;html=1;" vertex="1" parent="87">
                    <mxGeometry x="469" width="90" height="36" as="geometry">
                        <mxRectangle width="90" height="36" as="alternateBounds"/>
                    </mxGeometry>
                </mxCell>
                <mxCell id="94" style="connectable=0;recursiveResize=0;strokeColor=inherit;fillColor=none;align=center;whiteSpace=wrap;html=1;" vertex="1" parent="87">
                    <mxGeometry x="559" width="100" height="36" as="geometry">
                        <mxRectangle width="100" height="36" as="alternateBounds"/>
                    </mxGeometry>
                </mxCell>
                <mxCell id="95" style="connectable=0;recursiveResize=0;strokeColor=inherit;fillColor=none;align=center;whiteSpace=wrap;html=1;" vertex="1" parent="87">
                    <mxGeometry x="659" width="60" height="36" as="geometry">
                        <mxRectangle width="60" height="36" as="alternateBounds"/>
                    </mxGeometry>
                </mxCell>
                <mxCell id="96" style="shape=tableRow;horizontal=0;startSize=0;swimlaneHead=0;swimlaneBody=0;top=0;left=0;bottom=0;right=0;dropTarget=0;collapsible=0;recursiveResize=0;expand=0;fontStyle=0;fillColor=none;strokeColor=inherit;" vertex="1" parent="23">
                    <mxGeometry y="264" width="719" height="36" as="geometry"/>
                </mxCell>
                <mxCell id="97" value="7" style="connectable=0;recursiveResize=0;strokeColor=inherit;fillColor=none;align=center;whiteSpace=wrap;html=1;" vertex="1" parent="96">
                    <mxGeometry width="44" height="36" as="geometry">
                        <mxRectangle width="44" height="36" as="alternateBounds"/>
                    </mxGeometry>
                </mxCell>
                <mxCell id="98" style="connectable=0;recursiveResize=0;strokeColor=inherit;fillColor=none;align=center;whiteSpace=wrap;html=1;" vertex="1" parent="96">
                    <mxGeometry x="44" width="87" height="36" as="geometry">
                        <mxRectangle width="87" height="36" as="alternateBounds"/>
                    </mxGeometry>
                </mxCell>
                <mxCell id="99" style="connectable=0;recursiveResize=0;strokeColor=inherit;fillColor=none;align=center;whiteSpace=wrap;html=1;" vertex="1" parent="96">
                    <mxGeometry x="131" width="139" height="36" as="geometry">
                        <mxRectangle width="139" height="36" as="alternateBounds"/>
                    </mxGeometry>
                </mxCell>
                <mxCell id="100" style="connectable=0;recursiveResize=0;strokeColor=inherit;fillColor=none;align=center;whiteSpace=wrap;html=1;" vertex="1" parent="96">
                    <mxGeometry x="270" width="99" height="36" as="geometry">
                        <mxRectangle width="99" height="36" as="alternateBounds"/>
                    </mxGeometry>
                </mxCell>
                <mxCell id="101" style="connectable=0;recursiveResize=0;strokeColor=inherit;fillColor=none;align=center;whiteSpace=wrap;html=1;" vertex="1" parent="96">
                    <mxGeometry x="369" width="100" height="36" as="geometry">
                        <mxRectangle width="100" height="36" as="alternateBounds"/>
                    </mxGeometry>
                </mxCell>
                <mxCell id="102" style="connectable=0;recursiveResize=0;strokeColor=inherit;fillColor=none;align=center;whiteSpace=wrap;html=1;" vertex="1" parent="96">
                    <mxGeometry x="469" width="90" height="36" as="geometry">
                        <mxRectangle width="90" height="36" as="alternateBounds"/>
                    </mxGeometry>
                </mxCell>
                <mxCell id="103" style="connectable=0;recursiveResize=0;strokeColor=inherit;fillColor=none;align=center;whiteSpace=wrap;html=1;" vertex="1" parent="96">
                    <mxGeometry x="559" width="100" height="36" as="geometry">
                        <mxRectangle width="100" height="36" as="alternateBounds"/>
                    </mxGeometry>
                </mxCell>
                <mxCell id="104" style="connectable=0;recursiveResize=0;strokeColor=inherit;fillColor=none;align=center;whiteSpace=wrap;html=1;" vertex="1" parent="96">
                    <mxGeometry x="659" width="60" height="36" as="geometry">
                        <mxRectangle width="60" height="36" as="alternateBounds"/>
                    </mxGeometry>
                </mxCell>
                <mxCell id="105" style="shape=tableRow;horizontal=0;startSize=0;swimlaneHead=0;swimlaneBody=0;top=0;left=0;bottom=0;right=0;dropTarget=0;collapsible=0;recursiveResize=0;expand=0;fontStyle=0;fillColor=none;strokeColor=inherit;" vertex="1" parent="23">
                    <mxGeometry y="300" width="719" height="36" as="geometry"/>
                </mxCell>
                <mxCell id="106" value="8" style="connectable=0;recursiveResize=0;strokeColor=inherit;fillColor=none;align=center;whiteSpace=wrap;html=1;" vertex="1" parent="105">
                    <mxGeometry width="44" height="36" as="geometry">
                        <mxRectangle width="44" height="36" as="alternateBounds"/>
                    </mxGeometry>
                </mxCell>
                <mxCell id="107" style="connectable=0;recursiveResize=0;strokeColor=inherit;fillColor=none;align=center;whiteSpace=wrap;html=1;" vertex="1" parent="105">
                    <mxGeometry x="44" width="87" height="36" as="geometry">
                        <mxRectangle width="87" height="36" as="alternateBounds"/>
                    </mxGeometry>
                </mxCell>
                <mxCell id="108" style="connectable=0;recursiveResize=0;strokeColor=inherit;fillColor=none;align=center;whiteSpace=wrap;html=1;" vertex="1" parent="105">
                    <mxGeometry x="131" width="139" height="36" as="geometry">
                        <mxRectangle width="139" height="36" as="alternateBounds"/>
                    </mxGeometry>
                </mxCell>
                <mxCell id="109" style="connectable=0;recursiveResize=0;strokeColor=inherit;fillColor=none;align=center;whiteSpace=wrap;html=1;" vertex="1" parent="105">
                    <mxGeometry x="270" width="99" height="36" as="geometry">
                        <mxRectangle width="99" height="36" as="alternateBounds"/>
                    </mxGeometry>
                </mxCell>
                <mxCell id="110" style="connectable=0;recursiveResize=0;strokeColor=inherit;fillColor=none;align=center;whiteSpace=wrap;html=1;" vertex="1" parent="105">
                    <mxGeometry x="369" width="100" height="36" as="geometry">
                        <mxRectangle width="100" height="36" as="alternateBounds"/>
                    </mxGeometry>
                </mxCell>
                <mxCell id="111" style="connectable=0;recursiveResize=0;strokeColor=inherit;fillColor=none;align=center;whiteSpace=wrap;html=1;" vertex="1" parent="105">
                    <mxGeometry x="469" width="90" height="36" as="geometry">
                        <mxRectangle width="90" height="36" as="alternateBounds"/>
                    </mxGeometry>
                </mxCell>
                <mxCell id="112" style="connectable=0;recursiveResize=0;strokeColor=inherit;fillColor=none;align=center;whiteSpace=wrap;html=1;" vertex="1" parent="105">
                    <mxGeometry x="559" width="100" height="36" as="geometry">
                        <mxRectangle width="100" height="36" as="alternateBounds"/>
                    </mxGeometry>
                </mxCell>
                <mxCell id="113" style="connectable=0;recursiveResize=0;strokeColor=inherit;fillColor=none;align=center;whiteSpace=wrap;html=1;" vertex="1" parent="105">
                    <mxGeometry x="659" width="60" height="36" as="geometry">
                        <mxRectangle width="60" height="36" as="alternateBounds"/>
                    </mxGeometry>
                </mxCell>
                <mxCell id="114" style="shape=tableRow;horizontal=0;startSize=0;swimlaneHead=0;swimlaneBody=0;top=0;left=0;bottom=0;right=0;dropTarget=0;collapsible=0;recursiveResize=0;expand=0;fontStyle=0;fillColor=none;strokeColor=inherit;" vertex="1" parent="23">
                    <mxGeometry y="336" width="719" height="36" as="geometry"/>
                </mxCell>
                <mxCell id="115" value="9" style="connectable=0;recursiveResize=0;strokeColor=inherit;fillColor=none;align=center;whiteSpace=wrap;html=1;" vertex="1" parent="114">
                    <mxGeometry width="44" height="36" as="geometry">
                        <mxRectangle width="44" height="36" as="alternateBounds"/>
                    </mxGeometry>
                </mxCell>
                <mxCell id="116" style="connectable=0;recursiveResize=0;strokeColor=inherit;fillColor=none;align=center;whiteSpace=wrap;html=1;" vertex="1" parent="114">
                    <mxGeometry x="44" width="87" height="36" as="geometry">
                        <mxRectangle width="87" height="36" as="alternateBounds"/>
                    </mxGeometry>
                </mxCell>
                <mxCell id="117" style="connectable=0;recursiveResize=0;strokeColor=inherit;fillColor=none;align=center;whiteSpace=wrap;html=1;" vertex="1" parent="114">
                    <mxGeometry x="131" width="139" height="36" as="geometry">
                        <mxRectangle width="139" height="36" as="alternateBounds"/>
                    </mxGeometry>
                </mxCell>
                <mxCell id="118" style="connectable=0;recursiveResize=0;strokeColor=inherit;fillColor=none;align=center;whiteSpace=wrap;html=1;" vertex="1" parent="114">
                    <mxGeometry x="270" width="99" height="36" as="geometry">
                        <mxRectangle width="99" height="36" as="alternateBounds"/>
                    </mxGeometry>
                </mxCell>
                <mxCell id="119" style="connectable=0;recursiveResize=0;strokeColor=inherit;fillColor=none;align=center;whiteSpace=wrap;html=1;" vertex="1" parent="114">
                    <mxGeometry x="369" width="100" height="36" as="geometry">
                        <mxRectangle width="100" height="36" as="alternateBounds"/>
                    </mxGeometry>
                </mxCell>
                <mxCell id="120" style="connectable=0;recursiveResize=0;strokeColor=inherit;fillColor=none;align=center;whiteSpace=wrap;html=1;" vertex="1" parent="114">
                    <mxGeometry x="469" width="90" height="36" as="geometry">
                        <mxRectangle width="90" height="36" as="alternateBounds"/>
                    </mxGeometry>
                </mxCell>
                <mxCell id="121" style="connectable=0;recursiveResize=0;strokeColor=inherit;fillColor=none;align=center;whiteSpace=wrap;html=1;" vertex="1" parent="114">
                    <mxGeometry x="559" width="100" height="36" as="geometry">
                        <mxRectangle width="100" height="36" as="alternateBounds"/>
                    </mxGeometry>
                </mxCell>
                <mxCell id="122" style="connectable=0;recursiveResize=0;strokeColor=inherit;fillColor=none;align=center;whiteSpace=wrap;html=1;" vertex="1" parent="114">
                    <mxGeometry x="659" width="60" height="36" as="geometry">
                        <mxRectangle width="60" height="36" as="alternateBounds"/>
                    </mxGeometry>
                </mxCell>
                <mxCell id="123" style="shape=tableRow;horizontal=0;startSize=0;swimlaneHead=0;swimlaneBody=0;top=0;left=0;bottom=0;right=0;dropTarget=0;collapsible=0;recursiveResize=0;expand=0;fontStyle=0;fillColor=none;strokeColor=inherit;" vertex="1" parent="23">
                    <mxGeometry y="372" width="719" height="36" as="geometry"/>
                </mxCell>
                <mxCell id="124" value="10" style="connectable=0;recursiveResize=0;strokeColor=inherit;fillColor=none;align=center;whiteSpace=wrap;html=1;" vertex="1" parent="123">
                    <mxGeometry width="44" height="36" as="geometry">
                        <mxRectangle width="44" height="36" as="alternateBounds"/>
                    </mxGeometry>
                </mxCell>
                <mxCell id="125" style="connectable=0;recursiveResize=0;strokeColor=inherit;fillColor=none;align=center;whiteSpace=wrap;html=1;" vertex="1" parent="123">
                    <mxGeometry x="44" width="87" height="36" as="geometry">
                        <mxRectangle width="87" height="36" as="alternateBounds"/>
                    </mxGeometry>
                </mxCell>
                <mxCell id="126" style="connectable=0;recursiveResize=0;strokeColor=inherit;fillColor=none;align=center;whiteSpace=wrap;html=1;" vertex="1" parent="123">
                    <mxGeometry x="131" width="139" height="36" as="geometry">
                        <mxRectangle width="139" height="36" as="alternateBounds"/>
                    </mxGeometry>
                </mxCell>
                <mxCell id="127" style="connectable=0;recursiveResize=0;strokeColor=inherit;fillColor=none;align=center;whiteSpace=wrap;html=1;" vertex="1" parent="123">
                    <mxGeometry x="270" width="99" height="36" as="geometry">
                        <mxRectangle width="99" height="36" as="alternateBounds"/>
                    </mxGeometry>
                </mxCell>
                <mxCell id="128" style="connectable=0;recursiveResize=0;strokeColor=inherit;fillColor=none;align=center;whiteSpace=wrap;html=1;" vertex="1" parent="123">
                    <mxGeometry x="369" width="100" height="36" as="geometry">
                        <mxRectangle width="100" height="36" as="alternateBounds"/>
                    </mxGeometry>
                </mxCell>
                <mxCell id="129" style="connectable=0;recursiveResize=0;strokeColor=inherit;fillColor=none;align=center;whiteSpace=wrap;html=1;" vertex="1" parent="123">
                    <mxGeometry x="469" width="90" height="36" as="geometry">
                        <mxRectangle width="90" height="36" as="alternateBounds"/>
                    </mxGeometry>
                </mxCell>
                <mxCell id="130" style="connectable=0;recursiveResize=0;strokeColor=inherit;fillColor=none;align=center;whiteSpace=wrap;html=1;" vertex="1" parent="123">
                    <mxGeometry x="559" width="100" height="36" as="geometry">
                        <mxRectangle width="100" height="36" as="alternateBounds"/>
                    </mxGeometry>
                </mxCell>
                <mxCell id="131" style="connectable=0;recursiveResize=0;strokeColor=inherit;fillColor=none;align=center;whiteSpace=wrap;html=1;" vertex="1" parent="123">
                    <mxGeometry x="659" width="60" height="36" as="geometry">
                        <mxRectangle width="60" height="36" as="alternateBounds"/>
                    </mxGeometry>
                </mxCell>
                <mxCell id="134" value="◀前へ：次へ▶" style="text;html=1;align=center;verticalAlign=middle;whiteSpace=wrap;rounded=0;" vertex="1" parent="1">
                    <mxGeometry x="660" y="740" width="100" height="30" as="geometry"/>
                </mxCell>
                <mxCell id="144" value="" style="group" vertex="1" connectable="0" parent="1">
                    <mxGeometry x="90" y="840" width="660" height="60" as="geometry"/>
                </mxCell>
                <mxCell id="135" value="" style="group" vertex="1" connectable="0" parent="144">
                    <mxGeometry width="180" height="60" as="geometry"/>
                </mxCell>
                <mxCell id="136" value="" style="rounded=1;whiteSpace=wrap;html=1;" vertex="1" parent="135">
                    <mxGeometry width="180" height="60" as="geometry"/>
                </mxCell>
                <mxCell id="137" value="新規スコア入力" style="text;html=1;align=center;verticalAlign=middle;whiteSpace=wrap;rounded=0;fontSize=19;" vertex="1" parent="135">
                    <mxGeometry x="17" y="15" width="143" height="30" as="geometry"/>
                </mxCell>
                <mxCell id="138" value="" style="group" vertex="1" connectable="0" parent="144">
                    <mxGeometry x="234" width="180" height="60" as="geometry"/>
                </mxCell>
                <mxCell id="139" value="" style="rounded=1;whiteSpace=wrap;html=1;" vertex="1" parent="138">
                    <mxGeometry width="180" height="60" as="geometry"/>
                </mxCell>
                <mxCell id="140" value="CSV出力" style="text;html=1;align=center;verticalAlign=middle;whiteSpace=wrap;rounded=0;fontSize=19;" vertex="1" parent="138">
                    <mxGeometry x="17" y="15" width="143" height="30" as="geometry"/>
                </mxCell>
                <mxCell id="141" value="" style="group" vertex="1" connectable="0" parent="144">
                    <mxGeometry x="480" width="180" height="60" as="geometry"/>
                </mxCell>
                <mxCell id="142" value="" style="rounded=1;whiteSpace=wrap;html=1;" vertex="1" parent="141">
                    <mxGeometry width="180" height="60" as="geometry"/>
                </mxCell>
                <mxCell id="143" value="ホームに戻る" style="text;html=1;align=center;verticalAlign=middle;whiteSpace=wrap;rounded=0;fontSize=19;" vertex="1" parent="141">
                    <mxGeometry x="17" y="15" width="143" height="30" as="geometry"/>
                </mxCell>
                <mxCell id="145" value="" style="group" vertex="1" connectable="0" parent="1">
                    <mxGeometry x="60" y="210" width="370" height="60" as="geometry"/>
                </mxCell>
                <mxCell id="8" value="キーワード：" style="text;html=1;align=center;verticalAlign=middle;whiteSpace=wrap;rounded=0;fontSize=15;" vertex="1" parent="145">
                    <mxGeometry width="160" height="60" as="geometry"/>
                </mxCell>
                <mxCell id="9" value="" style="rounded=0;whiteSpace=wrap;html=1;" vertex="1" parent="145">
                    <mxGeometry x="130" y="15" width="240" height="30" as="geometry"/>
                </mxCell>
            </root>
        </mxGraphModel>
    </diagram>
</mxfile>